<svg viewBox="0 0 844.7 71.4" viewport="0 0 1600px 134px"><g id="svgGroup" stroke-linecap="round" fill-rule="evenodd" font-size="9pt" stroke="#000" stroke-width="0.25mm" fill="#111" style="stroke:#000;stroke-width:0.25mm;fill:#111"><path d="M 519.7 11 L 518 11 Q 515.8 11 514.2 12.45 A 5.156 5.156 0 0 0 512.899 14.23 A 5.029 5.029 0 0 0 512.5 16 L 512.5 58.6 A 86.068 86.068 0 0 0 512.862 66.628 A 74.113 74.113 0 0 0 513.2 69.6 L 513.4 71.4 L 512.5 71.4 L 460.5 22.1 L 460.5 63.8 A 4.855 4.855 0 0 0 461.954 67.358 A 5.866 5.866 0 0 0 462.1 67.5 A 5.491 5.491 0 0 0 465.991 69 A 7.201 7.201 0 0 0 466 69 L 467.7 69 L 467.7 70 L 448.8 70 L 448.8 69 L 450.5 69 A 5.836 5.836 0 0 0 452.716 68.589 A 5.446 5.446 0 0 0 454.4 67.5 A 4.852 4.852 0 0 0 455.996 64.005 A 5.919 5.919 0 0 0 456 63.8 L 456 21 Q 456 15.305 455.39 10.743 A 54.776 54.776 0 0 0 455.3 10.1 L 455.1 8.5 L 456.2 8.6 L 508.1 57.5 L 508.1 16 Q 507.9 13.9 506.3 12.45 Q 504.7 11 502.5 11 L 500.8 11 L 500.8 10 L 519.7 10 L 519.7 11 Z M 406.8 13.1 L 401.5 13.1 L 401.5 63.6 Q 401.592 66.459 403.896 68.042 A 7.139 7.139 0 0 0 404.3 68.3 A 5.912 5.912 0 0 0 406.805 68.989 A 7.069 7.069 0 0 0 407.2 69 L 408.5 69 L 408.6 70 L 388.1 70 L 388.1 69 L 389.5 69 Q 391.8 69 393.45 67.45 A 5.236 5.236 0 0 0 394.7 65.708 A 5.01 5.01 0 0 0 395.1 63.7 L 395.1 16.2 A 4.777 4.777 0 0 0 393.626 12.666 A 5.946 5.946 0 0 0 393.45 12.5 Q 391.8 11 389.5 11 L 388.1 11 L 388.1 10 L 413.2 10 Q 422.6 10 428.05 14.3 Q 433.415 18.533 433.499 25.382 A 17.818 17.818 0 0 1 433.5 25.6 A 18.349 18.349 0 0 1 432.565 31.564 A 15.771 15.771 0 0 1 429.1 37.3 Q 424.7 42 417.9 42.7 Q 421.1 44.1 425.6 50.5 A 0.003 0.003 0 0 0 425.597 50.503 Q 425.597 50.615 428.719 54.489 A 763.579 763.579 0 0 0 429.05 54.9 Q 432.6 59.3 434.75 61.75 A 89.028 89.028 0 0 0 436.021 63.169 Q 437.338 64.606 438.3 65.5 A 12.976 12.976 0 0 0 442.258 68.118 A 11.765 11.765 0 0 0 446.8 69 L 446.8 70 L 443.7 70 Q 435.8 70 431.3 66.9 A 28.902 28.902 0 0 1 425.809 62.033 A 32.734 32.734 0 0 1 425.1 61.2 Q 424.534 60.445 420.538 54.836 A 4400.093 4400.093 0 0 1 420.05 54.15 A 7930.337 7930.337 0 0 0 419.002 52.679 Q 416.059 48.547 415.442 47.694 A 17.178 17.178 0 0 0 415.3 47.5 A 31.551 31.551 0 0 0 412.685 44.608 Q 409.713 41.737 406.968 41.031 A 7.074 7.074 0 0 0 405.2 40.8 L 405.2 39.8 A 180.594 180.594 0 0 0 409.261 39.758 Q 417.283 39.577 419.267 38.616 A 2.835 2.835 0 0 0 419.3 38.6 A 19.449 19.449 0 0 0 421.074 37.573 Q 422.956 36.336 423.8 35 Q 426.3 31 426.3 26.2 Q 426.3 20.1 422.7 16.8 A 13.073 13.073 0 0 0 417.384 13.892 Q 415.383 13.317 413 13.2 Q 410.68 13.114 407.769 13.102 A 233.355 233.355 0 0 0 406.8 13.1 Z M 76 0 L 76 1 L 75.1 1 A 8.313 8.313 0 0 0 70.108 2.681 A 11.461 11.461 0 0 0 68.9 3.7 A 9.475 9.475 0 0 0 66.579 6.804 A 11.105 11.105 0 0 0 66.4 7.2 L 42.3 61.1 A 138.172 138.172 0 0 0 41.043 63.93 Q 39.231 68.145 38.763 70.217 A 5.601 5.601 0 0 0 38.6 71.4 L 37.7 71.4 L 9.6 7.3 A 12.483 12.483 0 0 0 8.232 4.894 A 9.154 9.154 0 0 0 5.75 2.55 Q 3.3 1 0.8 1 L 0 1 L 0 0 L 22.5 0 L 22.5 1 L 21.6 1 Q 18.6 1 17.6 3.8 Q 17.413 4.362 17.401 5.101 A 6.252 6.252 0 0 0 17.4 5.2 A 3.327 3.327 0 0 0 17.459 5.797 Q 17.572 6.413 17.9 7.2 L 38.8 59.6 L 60.6 7.2 A 7.755 7.755 0 0 0 60.96 5.578 A 6.784 6.784 0 0 0 61 4.85 Q 61 3.968 60.382 2.968 A 7.028 7.028 0 0 0 59.95 2.35 A 3.374 3.374 0 0 0 57.954 1.119 A 5.277 5.277 0 0 0 56.8 1 L 55.9 1 L 55.9 0 L 76 0 Z M 530 54.3 L 531.2 54.3 Q 531.1 55.2 531.1 56.1 A 13.406 13.406 0 0 0 531.767 60.416 A 11.291 11.291 0 0 0 534.65 64.95 A 11.703 11.703 0 0 0 539.998 67.874 Q 542.039 68.4 544.5 68.4 A 23.066 23.066 0 0 0 548.519 68.072 Q 550.769 67.673 552.558 66.791 A 11.511 11.511 0 0 0 554.8 65.35 A 9.679 9.679 0 0 0 558.467 58.344 A 12.09 12.09 0 0 0 558.5 57.45 A 10.667 10.667 0 0 0 557.484 52.763 A 10.703 10.703 0 0 0 554.9 49.4 L 534.9 34 A 13.445 13.445 0 0 1 530.146 24.321 A 18.719 18.719 0 0 1 530.1 23 Q 530.1 19.1 532.25 15.8 A 14.77 14.77 0 0 1 537.088 11.192 A 18.011 18.011 0 0 1 538.25 10.55 A 17.665 17.665 0 0 1 543.298 8.922 A 23.83 23.83 0 0 1 547.3 8.6 A 51.552 51.552 0 0 1 551.62 8.772 Q 554.25 8.994 556.5 9.5 L 559.8 9.5 L 560 20.4 L 558.9 20.4 A 9.732 9.732 0 0 0 558.525 17.627 A 7.3 7.3 0 0 0 556 13.9 A 9.56 9.56 0 0 0 552.921 12.308 Q 551.565 11.876 549.923 11.708 A 21.807 21.807 0 0 0 547.7 11.6 A 17.4 17.4 0 0 0 543.699 12.037 A 12.44 12.44 0 0 0 538.8 14.35 A 9.332 9.332 0 0 0 536.377 17.117 A 8.707 8.707 0 0 0 535.3 21.45 A 8.987 8.987 0 0 0 537.752 27.626 A 13.22 13.22 0 0 0 539.2 29 L 559.4 44.6 A 12.405 12.405 0 0 1 563.858 52.902 A 17.97 17.97 0 0 1 564 55.2 A 14.881 14.881 0 0 1 559.398 66.18 A 18.831 18.831 0 0 1 558.85 66.7 Q 553.7 71.4 546.3 71.4 Q 541.4 71.4 536.5 70.2 A 25.702 25.702 0 0 1 533.403 69.245 Q 531.886 68.662 530.683 67.93 A 11.751 11.751 0 0 1 529 66.7 A 6.008 6.008 0 0 1 528.883 66.055 Q 528.7 64.691 528.7 61.8 A 22.598 22.598 0 0 1 529.621 55.5 A 26.15 26.15 0 0 1 530 54.3 Z M 642.5 54.3 L 643.7 54.3 Q 643.6 55.2 643.6 56.1 A 13.406 13.406 0 0 0 644.267 60.416 A 11.291 11.291 0 0 0 647.15 64.95 A 11.703 11.703 0 0 0 652.498 67.874 Q 654.539 68.4 657 68.4 A 23.066 23.066 0 0 0 661.019 68.072 Q 663.269 67.673 665.058 66.791 A 11.511 11.511 0 0 0 667.3 65.35 A 9.679 9.679 0 0 0 670.967 58.344 A 12.09 12.09 0 0 0 671 57.45 A 10.667 10.667 0 0 0 669.984 52.763 A 10.703 10.703 0 0 0 667.4 49.4 L 647.4 34 A 13.445 13.445 0 0 1 642.646 24.321 A 18.719 18.719 0 0 1 642.6 23 Q 642.6 19.1 644.75 15.8 A 14.77 14.77 0 0 1 649.588 11.192 A 18.011 18.011 0 0 1 650.75 10.55 A 17.665 17.665 0 0 1 655.798 8.922 A 23.83 23.83 0 0 1 659.8 8.6 A 51.552 51.552 0 0 1 664.12 8.772 Q 666.75 8.994 669 9.5 L 672.3 9.5 L 672.5 20.4 L 671.4 20.4 A 9.732 9.732 0 0 0 671.025 17.627 A 7.3 7.3 0 0 0 668.5 13.9 A 9.56 9.56 0 0 0 665.421 12.308 Q 664.065 11.876 662.423 11.708 A 21.807 21.807 0 0 0 660.2 11.6 A 17.4 17.4 0 0 0 656.199 12.037 A 12.44 12.44 0 0 0 651.3 14.35 A 9.332 9.332 0 0 0 648.877 17.117 A 8.707 8.707 0 0 0 647.8 21.45 A 8.987 8.987 0 0 0 650.252 27.626 A 13.22 13.22 0 0 0 651.7 29 L 671.9 44.6 A 12.405 12.405 0 0 1 676.358 52.902 A 17.97 17.97 0 0 1 676.5 55.2 A 14.881 14.881 0 0 1 671.898 66.18 A 18.831 18.831 0 0 1 671.35 66.7 Q 666.2 71.4 658.8 71.4 Q 653.9 71.4 649 70.2 A 25.702 25.702 0 0 1 645.903 69.245 Q 644.386 68.662 643.183 67.93 A 11.751 11.751 0 0 1 641.5 66.7 A 6.008 6.008 0 0 1 641.383 66.055 Q 641.2 64.691 641.2 61.8 A 22.598 22.598 0 0 1 642.121 55.5 A 26.15 26.15 0 0 1 642.5 54.3 Z M 635.4 69 L 636.2 69 L 636.2 70 L 615.7 70 L 615.7 69 L 616.5 69 A 4.426 4.426 0 0 0 617.7 68.846 A 3.173 3.173 0 0 0 619.4 67.7 Q 620.1 66.79 620.31 65.954 A 2.883 2.883 0 0 0 620.4 65.25 Q 620.4 64.1 620 63 L 614.5 49.7 L 589.2 49.7 L 583.7 62.7 A 8.034 8.034 0 0 0 583.341 63.886 A 5.983 5.983 0 0 0 583.2 65.15 A 3.128 3.128 0 0 0 583.391 66.195 Q 583.541 66.619 583.809 67.066 A 7.107 7.107 0 0 0 584.2 67.65 A 3.235 3.235 0 0 0 586.304 68.923 A 4.989 4.989 0 0 0 587.2 69 L 588 69 L 588 70 L 568.9 70 L 568.9 69 L 569.7 69 A 6.661 6.661 0 0 0 572.211 68.489 A 9.463 9.463 0 0 0 573.95 67.55 A 9.267 9.267 0 0 0 576.131 65.46 Q 576.84 64.531 577.423 63.358 A 15.687 15.687 0 0 0 577.5 63.2 Q 599.4 16.4 600.3 14.2 Q 601.776 10.553 602.046 9.017 A 4.147 4.147 0 0 0 602.1 8.6 L 603 8.6 L 627.7 63.2 A 15.067 15.067 0 0 0 629.361 65.855 Q 630.496 67.28 631.842 68.06 A 6.976 6.976 0 0 0 635.4 69 Z M 843.9 69 L 844.7 69 L 844.7 70 L 824.2 70 L 824.2 69 L 825 69 A 4.426 4.426 0 0 0 826.2 68.846 A 3.173 3.173 0 0 0 827.9 67.7 Q 828.6 66.79 828.81 65.954 A 2.883 2.883 0 0 0 828.9 65.25 Q 828.9 64.1 828.5 63 L 823 49.7 L 797.7 49.7 L 792.2 62.7 A 8.034 8.034 0 0 0 791.841 63.886 A 5.983 5.983 0 0 0 791.7 65.15 A 3.128 3.128 0 0 0 791.891 66.195 Q 792.041 66.619 792.309 67.066 A 7.107 7.107 0 0 0 792.7 67.65 A 3.235 3.235 0 0 0 794.804 68.923 A 4.989 4.989 0 0 0 795.7 69 L 796.5 69 L 796.5 70 L 777.4 70 L 777.4 69 L 778.2 69 A 6.661 6.661 0 0 0 780.711 68.489 A 9.463 9.463 0 0 0 782.45 67.55 A 9.267 9.267 0 0 0 784.631 65.46 Q 785.34 64.531 785.923 63.358 A 15.687 15.687 0 0 0 786 63.2 Q 807.9 16.4 808.8 14.2 Q 810.276 10.553 810.546 9.017 A 4.147 4.147 0 0 0 810.6 8.6 L 811.5 8.6 L 836.2 63.2 A 15.067 15.067 0 0 0 837.861 65.855 Q 838.996 67.28 840.342 68.06 A 6.976 6.976 0 0 0 843.9 69 Z M 150.9 69 L 152.3 69 Q 154.7 69 156.35 67.45 Q 158 65.9 158.1 63.7 L 158.1 16.4 A 5.263 5.263 0 0 0 156.488 12.828 A 6.974 6.974 0 0 0 156.25 12.6 Q 154.5 11 152.1 11 L 150.9 11 L 150.9 10 L 171.6 10 L 171.6 11 L 170.4 11 Q 168 11 166.25 12.6 A 5.63 5.63 0 0 0 165.069 14.086 A 4.813 4.813 0 0 0 164.5 16.4 L 164.5 66.9 L 180.1 66.9 A 22.043 22.043 0 0 0 183.606 66.636 Q 186 66.25 187.9 65.3 Q 191.1 63.7 192.75 61.5 Q 193.997 59.837 195.216 57.374 A 44.857 44.857 0 0 0 196 55.7 L 197 55.7 L 191.5 70 L 150.9 70 L 150.9 69 Z M 202.1 69 L 203.5 69 Q 205.9 69 207.55 67.45 Q 209.2 65.9 209.3 63.7 L 209.3 16.4 A 5.263 5.263 0 0 0 207.688 12.828 A 6.974 6.974 0 0 0 207.45 12.6 Q 205.7 11 203.3 11 L 202.1 11 L 202.1 10 L 222.8 10 L 222.8 11 L 221.6 11 Q 219.2 11 217.45 12.6 A 5.63 5.63 0 0 0 216.269 14.086 A 4.813 4.813 0 0 0 215.7 16.4 L 215.7 66.9 L 231.3 66.9 A 22.043 22.043 0 0 0 234.806 66.636 Q 237.2 66.25 239.1 65.3 Q 242.3 63.7 243.95 61.5 Q 245.197 59.837 246.416 57.374 A 44.857 44.857 0 0 0 247.2 55.7 L 248.2 55.7 L 242.7 70 L 202.1 70 L 202.1 69 Z M 91.3 12.55 Q 99 8.6 108.25 8.6 A 37.661 37.661 0 0 1 120.746 10.641 A 35.04 35.04 0 0 1 125.2 12.55 Q 132.9 16.5 137.45 23.7 Q 142 30.9 142 40 A 31.125 31.125 0 0 1 140.133 50.88 A 28.857 28.857 0 0 1 137.45 56.3 Q 132.9 63.5 125.2 67.45 A 35.235 35.235 0 0 1 113.925 71.088 A 32.805 32.805 0 0 1 109.4 71.4 A 48.542 48.542 0 0 1 102.224 70.895 A 35.558 35.558 0 0 1 95.1 69.1 A 34.059 34.059 0 0 1 86.884 64.751 A 30.919 30.919 0 0 1 84.35 62.7 A 29.495 29.495 0 0 1 77.317 53.067 A 33.651 33.651 0 0 1 77.15 52.7 A 29.248 29.248 0 0 1 75.026 45.524 A 40.359 40.359 0 0 1 74.5 38.85 A 27.62 27.62 0 0 1 78.367 24.83 A 33.346 33.346 0 0 1 79.05 23.7 Q 83.6 16.5 91.3 12.55 Z M 328.5 12.55 Q 336.2 8.6 345.45 8.6 A 37.661 37.661 0 0 1 357.946 10.641 A 35.04 35.04 0 0 1 362.4 12.55 Q 370.1 16.5 374.65 23.7 Q 379.2 30.9 379.2 40 A 31.125 31.125 0 0 1 377.333 50.88 A 28.857 28.857 0 0 1 374.65 56.3 Q 370.1 63.5 362.4 67.45 A 35.235 35.235 0 0 1 351.125 71.088 A 32.805 32.805 0 0 1 346.6 71.4 A 48.542 48.542 0 0 1 339.424 70.895 A 35.558 35.558 0 0 1 332.3 69.1 A 34.059 34.059 0 0 1 324.084 64.751 A 30.919 30.919 0 0 1 321.55 62.7 A 29.495 29.495 0 0 1 314.517 53.067 A 33.651 33.651 0 0 1 314.35 52.7 A 29.248 29.248 0 0 1 312.226 45.524 A 40.359 40.359 0 0 1 311.7 38.85 A 27.62 27.62 0 0 1 315.567 24.83 A 33.346 33.346 0 0 1 316.25 23.7 Q 320.8 16.5 328.5 12.55 Z M 310.7 69 L 310.7 70 L 307 70 A 26.825 26.825 0 0 1 301.354 69.443 Q 297.801 68.678 295.152 66.86 A 14.767 14.767 0 0 1 292.3 64.3 L 270.3 40.2 L 291.8 14.9 A 3.794 3.794 0 0 0 292.159 14.359 Q 292.697 13.36 292.253 12.441 A 2.402 2.402 0 0 0 292.15 12.25 A 2.465 2.465 0 0 0 290.482 11.088 A 4.138 4.138 0 0 0 289.6 11 L 288.7 11 L 288.7 10 L 309.1 10 L 309.1 11 L 308.7 11 A 16.733 16.733 0 0 0 304.557 11.485 A 11.832 11.832 0 0 0 299 14.6 L 277.2 37.9 L 302 64.9 Q 303.8 67.1 305.7 68 A 8.892 8.892 0 0 0 307.367 68.581 Q 308.179 68.782 309.132 68.89 A 19.688 19.688 0 0 0 310.7 69 Z M 744.8 69 L 744.8 70 L 741.1 70 A 26.825 26.825 0 0 1 735.454 69.443 Q 731.901 68.678 729.252 66.86 A 14.767 14.767 0 0 1 726.4 64.3 L 704.4 40.2 L 725.9 14.9 A 3.794 3.794 0 0 0 726.259 14.359 Q 726.797 13.36 726.353 12.441 A 2.402 2.402 0 0 0 726.25 12.25 A 2.465 2.465 0 0 0 724.582 11.088 A 4.138 4.138 0 0 0 723.7 11 L 722.8 11 L 722.8 10 L 743.2 10 L 743.2 11 L 742.8 11 A 16.733 16.733 0 0 0 738.657 11.485 A 11.832 11.832 0 0 0 733.1 14.6 L 711.3 37.9 L 736.1 64.9 Q 737.9 67.1 739.8 68 A 8.892 8.892 0 0 0 741.467 68.581 Q 742.279 68.782 743.232 68.89 A 19.688 19.688 0 0 0 744.8 69 Z M 749.8 69 L 751.2 69 A 7.643 7.643 0 0 0 754.124 68.451 A 7.202 7.202 0 0 0 755.9 67.4 A 6.087 6.087 0 0 0 757.059 66.201 A 4.366 4.366 0 0 0 757.9 63.6 L 757.9 16.4 A 4.467 4.467 0 0 0 756.655 13.302 A 6.632 6.632 0 0 0 755.9 12.6 Q 753.9 11 751.1 11 L 749.8 11 L 749.8 10 L 772.4 10 L 772.4 11 L 771.1 11 Q 768.4 11 766.45 12.5 A 6.046 6.046 0 0 0 765.159 13.827 A 4.847 4.847 0 0 0 764.3 16.2 L 764.3 63.7 A 4.666 4.666 0 0 0 765.691 66.82 A 6.75 6.75 0 0 0 766.4 67.45 A 7.39 7.39 0 0 0 770.807 68.995 A 9.212 9.212 0 0 0 771.1 69 L 772.4 69 L 772.5 70 L 749.8 70 L 749.8 69 Z M 706.8 69 L 707.9 69 L 707.9 70 L 687.4 70 L 687.4 69 L 688.6 69 A 5.768 5.768 0 0 0 692.7 67.4 A 5.862 5.862 0 0 0 693.971 65.709 A 5.293 5.293 0 0 0 694.5 63.6 L 694.5 16.4 A 5.375 5.375 0 0 0 692.805 12.701 A 7.002 7.002 0 0 0 692.7 12.6 Q 691 11 688.6 11 L 687.4 11 L 687.4 10 L 707.9 10 L 707.9 11 L 706.7 11 A 6.285 6.285 0 0 0 704.29 11.446 Q 702.863 12.032 701.851 13.39 A 7.408 7.408 0 0 0 701.7 13.6 Q 700.9 14.8 700.9 16.3 L 700.9 63.7 Q 700.9 65.9 702.65 67.45 Q 704.4 69 706.8 69 Z M 272.7 69 L 273.8 69 L 273.8 70 L 253.3 70 L 253.3 69 L 254.5 69 Q 256.9 69 258.6 67.4 A 5.862 5.862 0 0 0 259.871 65.709 A 5.293 5.293 0 0 0 260.4 63.6 L 260.4 16.4 A 5.375 5.375 0 0 0 258.705 12.701 A 7.002 7.002 0 0 0 258.6 12.6 Q 256.9 11 254.5 11 L 253.3 11 L 253.3 10 L 273.8 10 L 273.8 11 L 272.6 11 A 6.285 6.285 0 0 0 270.19 11.446 Q 268.763 12.032 267.751 13.39 A 7.408 7.408 0 0 0 267.6 13.6 Q 266.8 14.8 266.8 16.3 L 266.8 63.7 Q 266.8 65.9 268.55 67.45 Q 270.3 69 272.7 69 Z M 89.45 60.45 A 24.711 24.711 0 0 0 107.417 68.39 A 31.026 31.026 0 0 0 108.2 68.4 A 25.895 25.895 0 0 0 119.373 66.022 A 25.642 25.642 0 0 0 127 60.45 A 27.068 27.068 0 0 0 134.286 44.89 A 36.981 36.981 0 0 0 134.6 40 A 33.668 33.668 0 0 0 133.346 30.595 A 26.373 26.373 0 0 0 127 19.55 A 24.884 24.884 0 0 0 108.896 11.608 A 31.091 31.091 0 0 0 108.2 11.6 A 25.889 25.889 0 0 0 97.33 13.844 A 25.332 25.332 0 0 0 89.45 19.55 A 27.142 27.142 0 0 0 82.213 35.098 A 37.214 37.214 0 0 0 81.9 40 A 33.876 33.876 0 0 0 83.146 49.405 A 26.416 26.416 0 0 0 89.45 60.45 Z M 326.65 60.45 A 24.711 24.711 0 0 0 344.617 68.39 A 31.026 31.026 0 0 0 345.4 68.4 A 25.895 25.895 0 0 0 356.573 66.022 A 25.642 25.642 0 0 0 364.2 60.45 A 27.068 27.068 0 0 0 371.486 44.89 A 36.981 36.981 0 0 0 371.8 40 A 33.668 33.668 0 0 0 370.546 30.595 A 26.373 26.373 0 0 0 364.2 19.55 A 24.884 24.884 0 0 0 346.096 11.608 A 31.091 31.091 0 0 0 345.4 11.6 A 25.889 25.889 0 0 0 334.53 13.844 A 25.332 25.332 0 0 0 326.65 19.55 A 27.142 27.142 0 0 0 319.413 35.098 A 37.214 37.214 0 0 0 319.1 40 A 33.876 33.876 0 0 0 320.346 49.405 A 26.416 26.416 0 0 0 326.65 60.45 Z M 602.1 19.3 L 590.5 46.7 L 613.3 46.7 L 602.1 19.3 Z M 810.6 19.3 L 799 46.7 L 821.8 46.7 L 810.6 19.3 Z" vector-effect="non-scaling-stroke"/></g></svg>